<svg xmlns="http://www.w3.org/2000/svg" xmlns:xlink="http://www.w3.org/1999/xlink" width="1587" zoomAndPan="magnify" viewBox="0 0 1190.25 842.249979" height="1122" preserveAspectRatio="xMidYMid meet" version="1.0"><defs><g/><clipPath id="4bd4261bfa"><path d="M 0.15625 0 L 1189.347656 0 L 1189.347656 841.5 L 0.15625 841.5 Z M 0.15625 0 " clip-rule="nonzero"/></clipPath></defs><g clip-path="url(#4bd4261bfa)"><path fill="#ffffff" d="M 0.15625 0 L 1189.347656 0 L 1189.347656 841.5 L 0.15625 841.5 Z M 0.15625 0 " fill-opacity="1" fill-rule="nonzero"/><path fill="#ffffff" d="M 0.15625 0 L 1189.347656 0 L 1189.347656 841.5 L 0.15625 841.5 Z M 0.15625 0 " fill-opacity="1" fill-rule="nonzero"/></g><g fill="#ff1e0c" fill-opacity="1"><g transform="translate(807.319493, 595.253391)"><g><path d="M -33.125 -31.859375 C -32.75 -33.304688 -32.015625 -34.550781 -30.921875 -35.59375 C -29.835938 -36.632812 -28.570312 -37.375 -27.125 -37.8125 C -25.6875 -38.25 -24.222656 -38.269531 -22.734375 -37.875 C -20.890625 -37.394531 -19.492188 -36.554688 -18.546875 -35.359375 C -17.609375 -34.171875 -16.851562 -32.757812 -16.28125 -31.125 C -14.78125 -31.28125 -13.316406 -31.429688 -11.890625 -31.578125 C -10.460938 -31.722656 -9.007812 -31.863281 -7.53125 -32 C -5.195312 -32.21875 -2.847656 -32.445312 -0.484375 -32.6875 C 1.867188 -32.9375 4.238281 -33.195312 6.625 -33.46875 C 7.351562 -33.550781 7.84375 -33.394531 8.09375 -33 C 8.351562 -32.601562 8.398438 -32.082031 8.234375 -31.4375 L 7.265625 -27.75 C 7.128906 -27.238281 6.914062 -26.914062 6.625 -26.78125 C 6.332031 -26.644531 6.007812 -26.550781 5.65625 -26.5 L -14.65625 -24.359375 C -14.226562 -22.453125 -13.796875 -20.613281 -13.359375 -18.84375 C -12.929688 -17.070312 -12.492188 -15.195312 -12.046875 -13.21875 L 0.578125 -9.921875 C 1.066406 -9.796875 1.484375 -9.609375 1.828125 -9.359375 C 2.179688 -9.109375 2.257812 -8.609375 2.0625 -7.859375 L 1.15625 -4.40625 C 1.039062 -3.957031 0.785156 -3.640625 0.390625 -3.453125 C -0.00390625 -3.265625 -0.398438 -3.222656 -0.796875 -3.328125 L -36.53125 -12.578125 C -36.914062 -12.679688 -37.226562 -12.925781 -37.46875 -13.3125 C -37.707031 -13.707031 -37.769531 -14.128906 -37.65625 -14.578125 Z M -29.890625 -17.90625 L -19.3125 -15.125 C -19.507812 -16 -19.734375 -17.039062 -19.984375 -18.25 C -20.234375 -19.457031 -20.503906 -20.722656 -20.796875 -22.046875 C -21.085938 -23.367188 -21.394531 -24.625 -21.71875 -25.8125 C -22.039062 -27 -22.359375 -28.03125 -22.671875 -28.90625 C -22.984375 -29.78125 -23.273438 -30.359375 -23.546875 -30.640625 L -23.5 -30.640625 C -23.738281 -30.898438 -24.050781 -31.082031 -24.4375 -31.1875 C -24.945312 -31.320312 -25.425781 -31.257812 -25.875 -31 C -26.332031 -30.738281 -26.632812 -30.332031 -26.78125 -29.78125 Z M -29.890625 -17.90625 "/></g></g></g><g fill="#ff1e0c" fill-opacity="1"><g transform="translate(824.695749, 528.923034)"><g><path d="M 0.875 -9.71875 C 1.269531 -9.613281 1.585938 -9.363281 1.828125 -8.96875 C 2.078125 -8.582031 2.140625 -8.160156 2.015625 -7.703125 L 1.15625 -4.40625 C 1.039062 -3.957031 0.785156 -3.644531 0.390625 -3.46875 C 0.00390625 -3.300781 -0.382812 -3.269531 -0.78125 -3.375 L -36.515625 -12.625 C -36.898438 -12.726562 -37.210938 -12.96875 -37.453125 -13.34375 C -37.703125 -13.71875 -37.769531 -14.128906 -37.65625 -14.578125 L -36.796875 -17.875 C -36.671875 -18.332031 -36.40625 -18.671875 -36 -18.890625 C -35.601562 -19.117188 -35.210938 -19.179688 -34.828125 -19.078125 Z M 0.875 -9.71875 "/></g></g></g><g fill="#ff1e0c" fill-opacity="1"><g transform="translate(836.428384, 484.136064)"><g><path d="M -34.0625 -28.328125 C -33.5 -30.453125 -32.566406 -32.335938 -31.265625 -33.984375 C -29.972656 -35.640625 -28.441406 -36.984375 -26.671875 -38.015625 C -24.898438 -39.054688 -22.976562 -39.734375 -20.90625 -40.046875 C -18.832031 -40.367188 -16.738281 -40.253906 -14.625 -39.703125 L -6.59375 -37.59375 C -4.488281 -37.039062 -2.613281 -36.117188 -0.96875 -34.828125 C 0.675781 -33.535156 2.019531 -32.003906 3.0625 -30.234375 C 4.101562 -28.460938 4.785156 -26.535156 5.109375 -24.453125 C 5.429688 -22.378906 5.3125 -20.28125 4.75 -18.15625 L 1.15625 -4.40625 C 1.039062 -3.957031 0.796875 -3.625 0.421875 -3.40625 C 0.0546875 -3.195312 -0.351562 -3.148438 -0.8125 -3.265625 L -36.546875 -12.53125 C -36.929688 -12.632812 -37.238281 -12.890625 -37.46875 -13.296875 C -37.707031 -13.703125 -37.769531 -14.128906 -37.65625 -14.578125 Z M -29.9375 -17.75 L -4.03125 -10.953125 L -1.703125 -19.84375 C -1.265625 -21.476562 -1.269531 -23.082031 -1.71875 -24.65625 C -2.175781 -26.238281 -2.976562 -27.609375 -4.125 -28.765625 C -5.269531 -29.921875 -6.65625 -30.710938 -8.28125 -31.140625 L -16.3125 -33.25 C -17.9375 -33.675781 -19.535156 -33.664062 -21.109375 -33.21875 C -22.679688 -32.769531 -24.046875 -31.96875 -25.203125 -30.8125 C -26.367188 -29.664062 -27.171875 -28.273438 -27.609375 -26.640625 Z M -29.9375 -17.75 "/></g></g></g><g fill="#ff1e0c" fill-opacity="1"><g transform="translate(854.40205, 415.525215)"><g><path d="M 1.171875 -4.453125 C 1.046875 -4.003906 0.800781 -3.675781 0.4375 -3.46875 C 0.0703125 -3.257812 -0.335938 -3.210938 -0.796875 -3.328125 L -36.53125 -12.578125 C -36.976562 -12.691406 -37.304688 -12.945312 -37.515625 -13.34375 C -37.722656 -13.75 -37.765625 -14.175781 -37.640625 -14.625 L -31.5 -38.078125 C -31.289062 -38.878906 -30.972656 -39.289062 -30.546875 -39.3125 C -30.128906 -39.34375 -29.675781 -39.296875 -29.1875 -39.171875 L -26.515625 -38.46875 C -25.648438 -38.238281 -25.148438 -37.988281 -25.015625 -37.71875 C -24.878906 -37.445312 -24.921875 -36.882812 -25.140625 -36.03125 L -29.90625 -17.859375 L -21.328125 -15.609375 L -17.09375 -31.75 C -16.976562 -32.195312 -16.726562 -32.523438 -16.34375 -32.734375 C -15.957031 -32.953125 -15.535156 -33.003906 -15.078125 -32.890625 L -11.78125 -32.015625 C -11.332031 -31.898438 -10.992188 -31.65625 -10.765625 -31.28125 C -10.535156 -30.90625 -10.476562 -30.492188 -10.59375 -30.046875 L -14.828125 -13.90625 L -4 -11.0625 L 0.9375 -29.875 C 1.15625 -30.707031 1.390625 -31.210938 1.640625 -31.390625 C 1.898438 -31.566406 2.460938 -31.546875 3.328125 -31.328125 L 5.953125 -30.625 C 6.441406 -30.5 6.867188 -30.320312 7.234375 -30.09375 C 7.609375 -29.863281 7.6875 -29.335938 7.46875 -28.515625 Z M 1.171875 -4.453125 "/></g></g></g><g fill="#ff1e0c" fill-opacity="1"><g transform="translate(871.333424, 350.893103)"><g><path d="M -33.125 -31.859375 C -32.75 -33.304688 -32.015625 -34.550781 -30.921875 -35.59375 C -29.835938 -36.632812 -28.570312 -37.375 -27.125 -37.8125 C -25.6875 -38.25 -24.222656 -38.269531 -22.734375 -37.875 C -20.890625 -37.394531 -19.492188 -36.554688 -18.546875 -35.359375 C -17.609375 -34.171875 -16.851562 -32.757812 -16.28125 -31.125 C -14.78125 -31.28125 -13.316406 -31.429688 -11.890625 -31.578125 C -10.460938 -31.722656 -9.007812 -31.863281 -7.53125 -32 C -5.195312 -32.21875 -2.847656 -32.445312 -0.484375 -32.6875 C 1.867188 -32.9375 4.238281 -33.195312 6.625 -33.46875 C 7.351562 -33.550781 7.84375 -33.394531 8.09375 -33 C 8.351562 -32.601562 8.398438 -32.082031 8.234375 -31.4375 L 7.265625 -27.75 C 7.128906 -27.238281 6.914062 -26.914062 6.625 -26.78125 C 6.332031 -26.644531 6.007812 -26.550781 5.65625 -26.5 L -14.65625 -24.359375 C -14.226562 -22.453125 -13.796875 -20.613281 -13.359375 -18.84375 C -12.929688 -17.070312 -12.492188 -15.195312 -12.046875 -13.21875 L 0.578125 -9.921875 C 1.066406 -9.796875 1.484375 -9.609375 1.828125 -9.359375 C 2.179688 -9.109375 2.257812 -8.609375 2.0625 -7.859375 L 1.15625 -4.40625 C 1.039062 -3.957031 0.785156 -3.640625 0.390625 -3.453125 C -0.00390625 -3.265625 -0.398438 -3.222656 -0.796875 -3.328125 L -36.53125 -12.578125 C -36.914062 -12.679688 -37.226562 -12.925781 -37.46875 -13.3125 C -37.707031 -13.707031 -37.769531 -14.128906 -37.65625 -14.578125 Z M -29.890625 -17.90625 L -19.3125 -15.125 C -19.507812 -16 -19.734375 -17.039062 -19.984375 -18.25 C -20.234375 -19.457031 -20.503906 -20.722656 -20.796875 -22.046875 C -21.085938 -23.367188 -21.394531 -24.625 -21.71875 -25.8125 C -22.039062 -27 -22.359375 -28.03125 -22.671875 -28.90625 C -22.984375 -29.78125 -23.273438 -30.359375 -23.546875 -30.640625 L -23.5 -30.640625 C -23.738281 -30.898438 -24.050781 -31.082031 -24.4375 -31.1875 C -24.945312 -31.320312 -25.425781 -31.257812 -25.875 -31 C -26.332031 -30.738281 -26.632812 -30.332031 -26.78125 -29.78125 Z M -29.890625 -17.90625 "/></g></g></g><g fill="#ff1e0c" fill-opacity="1"><g transform="translate(888.70968, 284.562746)"><g><path d="M -4.109375 -33.390625 C -2.878906 -33.066406 -1.679688 -32.585938 -0.515625 -31.953125 C 0.640625 -31.316406 1.671875 -30.582031 2.578125 -29.75 C 3.492188 -28.925781 4.175781 -28.0625 4.625 -27.15625 C 5.300781 -25.800781 5.660156 -24.3125 5.703125 -22.6875 C 5.753906 -21.070312 5.550781 -19.394531 5.09375 -17.65625 L 4.125 -13.96875 C 3.570312 -11.851562 2.566406 -10.023438 1.109375 -8.484375 C -0.347656 -6.953125 -2.050781 -5.890625 -4 -5.296875 C -5.226562 -4.867188 -6.394531 -4.6875 -7.5 -4.75 C -8.5625 -4.832031 -9.363281 -4.9375 -9.90625 -5.0625 C -10.445312 -5.1875 -10.992188 -5.316406 -11.546875 -5.453125 L -11.4375 -5.4375 C -11.914062 -5.5625 -12.328125 -5.742188 -12.671875 -5.984375 C -13.023438 -6.234375 -13.109375 -6.734375 -12.921875 -7.484375 L -12.046875 -10.78125 C -11.847656 -11.550781 -11.332031 -11.929688 -10.5 -11.921875 C -10.15625 -11.941406 -9.90625 -11.929688 -9.75 -11.890625 C -9.59375 -11.847656 -9.320312 -11.773438 -8.9375 -11.671875 C -8.800781 -11.640625 -8.625 -11.601562 -8.40625 -11.5625 C -8.195312 -11.519531 -7.925781 -11.472656 -7.59375 -11.421875 C -6.3125 -11.367188 -5.15625 -11.734375 -4.125 -12.515625 C -3.101562 -13.304688 -2.425781 -14.332031 -2.09375 -15.59375 L -1.125 -19.28125 C -0.75 -20.726562 -0.785156 -22.109375 -1.234375 -23.421875 C -1.691406 -24.734375 -2.535156 -25.671875 -3.765625 -26.234375 C -3.910156 -26.304688 -4.0625 -26.375 -4.21875 -26.4375 C -4.375 -26.5 -4.53125 -26.550781 -4.6875 -26.59375 C -5 -26.707031 -5.460938 -26.816406 -6.078125 -26.921875 C -6.691406 -27.023438 -7.226562 -26.914062 -7.6875 -26.59375 C -8.457031 -26.070312 -9.179688 -25.15625 -9.859375 -23.84375 C -10.546875 -22.539062 -11.332031 -21.070312 -12.21875 -19.4375 C -12.976562 -17.976562 -13.785156 -16.546875 -14.640625 -15.140625 C -15.492188 -13.734375 -16.445312 -12.492188 -17.5 -11.421875 C -18.5625 -10.359375 -19.738281 -9.597656 -21.03125 -9.140625 C -22.332031 -8.679688 -23.796875 -8.664062 -25.421875 -9.09375 L -26.09375 -9.28125 C -26.613281 -9.40625 -27.132812 -9.546875 -27.65625 -9.703125 C -28.1875 -9.859375 -28.753906 -10.101562 -29.359375 -10.4375 L -29.328125 -10.390625 C -31.046875 -11.203125 -32.453125 -12.347656 -33.546875 -13.828125 C -34.648438 -15.316406 -35.390625 -16.984375 -35.765625 -18.828125 C -36.140625 -20.679688 -36.085938 -22.53125 -35.609375 -24.375 L -34.640625 -28.0625 C -34.265625 -29.507812 -33.648438 -30.835938 -32.796875 -32.046875 C -31.941406 -33.265625 -30.929688 -34.3125 -29.765625 -35.1875 C -28.609375 -36.050781 -27.164062 -36.582031 -25.4375 -36.78125 C -23.707031 -36.988281 -21.910156 -36.816406 -20.046875 -36.265625 C -19.578125 -36.097656 -19.164062 -35.898438 -18.8125 -35.671875 C -18.457031 -35.441406 -18.378906 -34.957031 -18.578125 -34.21875 L -19.40625 -31.015625 C -19.53125 -30.554688 -19.789062 -30.226562 -20.1875 -30.03125 C -20.582031 -29.84375 -20.972656 -29.785156 -21.359375 -29.859375 C -23.453125 -30.335938 -25.035156 -30.269531 -26.109375 -29.65625 C -27.191406 -29.039062 -27.9375 -27.957031 -28.34375 -26.40625 L -29.3125 -22.71875 C -29.632812 -21.488281 -29.519531 -20.253906 -28.96875 -19.015625 C -28.425781 -17.785156 -27.578125 -16.878906 -26.421875 -16.296875 L -26.484375 -16.3125 C -26.066406 -16.144531 -25.535156 -15.960938 -24.890625 -15.765625 C -24.242188 -15.578125 -23.535156 -15.710938 -22.765625 -16.171875 C -21.941406 -16.648438 -21.34375 -17.238281 -20.96875 -17.9375 L -17.9375 -23.125 C -17.15625 -24.457031 -16.488281 -25.601562 -15.9375 -26.5625 C -15.394531 -27.519531 -14.921875 -28.273438 -14.515625 -28.828125 C -14.128906 -29.429688 -13.722656 -29.976562 -13.296875 -30.46875 C -12.867188 -30.96875 -12.429688 -31.414062 -11.984375 -31.8125 C -11.046875 -32.644531 -9.910156 -33.222656 -8.578125 -33.546875 C -7.253906 -33.867188 -5.765625 -33.816406 -4.109375 -33.390625 Z M -4.109375 -33.390625 "/></g></g></g><g fill="#ff1e0c" fill-opacity="1"><g transform="translate(180.118553, 579.482679)"><g><path d="M 258.125 -262.21875 L 188.015625 0 L 92.421875 0 L 162.53125 -262.21875 L 79.21875 -262.21875 L 110.171875 -333.703125 L 348.71875 -333.703125 L 341.4375 -262.21875 Z M 258.125 -262.21875 "/></g></g></g><g fill="#ff1e0c" fill-opacity="1"><g transform="translate(403.193966, 579.482679)"><g><path d="M 284.984375 0 L 189.390625 0 L 180.28125 -142.953125 L 156.15625 -142.953125 L 117.90625 0 L 22.765625 0 L 111.984375 -333.703125 L 231.265625 -333.703125 C 249.171875 -333.703125 265.710938 -332.179688 280.890625 -329.140625 C 295.765625 -325.804688 308.207031 -320.5 318.21875 -313.21875 C 327.925781 -305.625 334.753906 -295.757812 338.703125 -283.625 C 342.347656 -271.476562 341.742188 -256.453125 336.890625 -238.546875 C 331.722656 -218.816406 323.375 -202.734375 311.84375 -190.296875 C 300.007812 -177.546875 286.203125 -167.53125 270.421875 -160.25 Z M 168.890625 -190.75 C 178.910156 -190.75 188.171875 -192.113281 196.671875 -194.84375 C 204.859375 -197.570312 212.140625 -201.210938 218.515625 -205.765625 C 224.890625 -210.015625 230.203125 -215.023438 234.453125 -220.796875 C 238.398438 -226.253906 241.128906 -232.019531 242.640625 -238.09375 C 244.160156 -244.164062 244.46875 -250.082031 243.5625 -255.84375 C 242.34375 -261.613281 239.914062 -266.773438 236.28125 -271.328125 C 232.332031 -275.578125 226.867188 -279.066406 219.890625 -281.796875 C 212.910156 -284.523438 204.410156 -285.890625 194.390625 -285.890625 Z M 168.890625 -190.75 "/></g></g></g><g fill="#ff1e0c" fill-opacity="1"><g transform="translate(644.479616, 579.482679)"><g><path d="M 111.984375 -333.703125 L 207.140625 -333.703125 L 117.90625 0 L 22.765625 0 Z M 111.984375 -333.703125 "/></g></g></g></svg>